<?xml version="1.0" standalone="no"?>
<!DOCTYPE svg PUBLIC "-//W3C//DTD SVG 20010904//EN"
 "http://www.w3.org/TR/2001/REC-SVG-20010904/DTD/svg10.dtd">
<svg version="1.0" xmlns="http://www.w3.org/2000/svg"
 width="50.000000pt" height="50.000000pt" viewBox="0 0 50.000000 50.000000"
 preserveAspectRatio="xMidYMid meet">

<g transform="translate(0.000000,50.000000) scale(0.100000,-0.100000)"
fill="#000000" stroke="none">
<path d="M210 480 c-18 -18 -20 -33 -20 -138 0 -106 -2 -121 -20 -137 -33 -30
-45 -85 -27 -127 41 -97 173 -97 214 0 18 42 6 97 -27 127 -11 10 -20 29 -20
42 0 19 -5 23 -30 23 -16 0 -30 5 -30 10 0 6 14 10 30 10 17 0 30 5 30 10 0 6
-9 10 -20 10 -11 0 -20 5 -20 10 0 6 9 10 20 10 11 0 20 5 20 10 0 6 -13 10
-30 10 -16 0 -30 5 -30 10 0 6 14 10 30 10 29 0 30 2 30 45 0 50 -25 85 -60
85 -11 0 -29 -9 -40 -20z m78 -37 c3 -32 2 -33 -37 -33 -38 0 -41 2 -41 28 0
37 8 44 45 40 26 -3 30 -7 33 -35z"/>
</g>
</svg>
