<?xml version="1.0" standalone="no"?>
<!DOCTYPE svg PUBLIC "-//W3C//DTD SVG 20010904//EN"
 "http://www.w3.org/TR/2001/REC-SVG-20010904/DTD/svg10.dtd">
<svg version="1.0" xmlns="http://www.w3.org/2000/svg"
 width="50.000000pt" height="50.000000pt" viewBox="0 0 50.000000 50.000000"
 preserveAspectRatio="xMidYMid meet">

<g transform="translate(0.000000,50.000000) scale(0.100000,-0.100000)"
fill="#000000" stroke="none">
<path d="M175 440 c-13 -14 -31 -20 -61 -20 -69 0 -74 -10 -74 -170 0 -113 3
-142 16 -154 13 -13 45 -16 193 -16 160 0 180 2 194 18 14 15 17 42 17 155 0
156 -5 167 -74 167 -30 0 -48 6 -61 20 -14 16 -31 20 -75 20 -44 0 -61 -4 -75
-20z m146 -119 c64 -65 20 -171 -71 -171 -91 0 -135 106 -71 171 41 41 101 41
142 0z"/>
<path d="M207 292 c-36 -40 -9 -102 45 -102 51 0 78 69 40 103 -24 22 -65 21
-85 -1z"/>
</g>
</svg>
